<mxfile host="65bd71144e">
    <diagram id="lWv2Lwk4sww-XfeaLw_D" name="Classes for now">
        <mxGraphModel dx="2843" dy="788" grid="1" gridSize="10" guides="1" tooltips="1" connect="1" arrows="1" fold="1" page="1" pageScale="1" pageWidth="827" pageHeight="1169" math="0" shadow="0">
            <root>
                <mxCell id="0"/>
                <mxCell id="1" parent="0"/>
                <mxCell id="35" value="ShapeConstructs" style="shape=folder;fontStyle=1;align=left;spacingLeft=2;boundedLbl=1;labelInHeader=1;container=1;collapsible=0;recursiveResize=0;tabWidth=100;tabHeight=20;tabPosition=left;html=1;fontSize=12;fillColor=#E6E6E6;strokeWidth=2;" parent="1" vertex="1">
                    <mxGeometry x="-680" y="520" width="1200" height="720" as="geometry"/>
                </mxCell>
                <mxCell id="63" value="Definition" style="shape=folder;fontStyle=1;align=left;spacingLeft=2;boundedLbl=1;labelInHeader=1;container=1;collapsible=0;recursiveResize=0;tabWidth=100;tabHeight=20;tabPosition=left;html=1;fontSize=12;fillColor=#E6E6E6;strokeWidth=2;" parent="35" vertex="1">
                    <mxGeometry x="50" y="50" width="650" height="570" as="geometry"/>
                </mxCell>
                <mxCell id="13" value="&lt;&lt;interface&gt;&gt;&#xa;Shape" style="swimlane;fontStyle=0;childLayout=stackLayout;horizontal=1;startSize=26;fillColor=none;horizontalStack=0;resizeParent=1;resizeParentMax=0;resizeLast=0;collapsible=0;marginBottom=0;" parent="63" vertex="1">
                    <mxGeometry x="255" y="55" width="150" height="90" as="geometry"/>
                </mxCell>
                <mxCell id="15" value="+ manifest()&#xa;+ getPoints()&#xa;+ move(Transformation t)" style="text;strokeColor=none;fillColor=none;align=left;verticalAlign=top;spacingLeft=4;spacingRight=4;overflow=hidden;rotatable=0;points=[[0,0.5],[1,0.5]];portConstraint=eastwest;" parent="13" vertex="1">
                    <mxGeometry y="26" width="150" height="64" as="geometry"/>
                </mxCell>
                <mxCell id="70" value="impl" style="shape=folder;fontStyle=1;align=left;spacingLeft=2;boundedLbl=1;labelInHeader=1;container=1;collapsible=0;recursiveResize=0;tabWidth=100;tabHeight=20;tabPosition=left;html=1;fontSize=12;fillColor=#E6E6E6;strokeWidth=2;" parent="63" vertex="1">
                    <mxGeometry x="25" y="170" width="605" height="370" as="geometry"/>
                </mxCell>
                <mxCell id="86" value="line" style="shape=folder;fontStyle=1;align=left;spacingLeft=2;boundedLbl=1;labelInHeader=1;container=1;collapsible=0;recursiveResize=0;tabWidth=100;tabHeight=20;tabPosition=left;html=1;fontSize=12;fillColor=#E6E6E6;strokeWidth=2;" parent="70" vertex="1">
                    <mxGeometry x="65" y="50" width="190" height="300" as="geometry"/>
                </mxCell>
                <mxCell id="82" value="DDALine" style="swimlane;fontStyle=0;childLayout=stackLayout;horizontal=1;startSize=26;fillColor=none;horizontalStack=0;resizeParent=1;resizeParentMax=0;resizeLast=0;collapsible=0;marginBottom=0;" parent="86" vertex="1">
                    <mxGeometry x="25" y="180" width="140" height="98" as="geometry"/>
                </mxCell>
                <mxCell id="83" value="- start : Point2D&#xa;- end : Point2D" style="text;strokeColor=none;fillColor=none;align=left;verticalAlign=top;spacingLeft=4;spacingRight=4;overflow=hidden;rotatable=0;points=[[0,0.5],[1,0.5]];portConstraint=eastwest;" parent="82" vertex="1">
                    <mxGeometry y="26" width="140" height="34" as="geometry"/>
                </mxCell>
                <mxCell id="84" value="+ translate()&#xa;+ rotate()" style="text;strokeColor=none;fillColor=none;align=left;verticalAlign=top;spacingLeft=4;spacingRight=4;overflow=hidden;rotatable=0;points=[[0,0.5],[1,0.5]];portConstraint=eastwest;" parent="82" vertex="1">
                    <mxGeometry y="60" width="140" height="38" as="geometry"/>
                </mxCell>
                <mxCell id="74" value="&lt;&lt;interface&gt;&gt;&#xa;Line" style="swimlane;fontStyle=0;childLayout=stackLayout;horizontal=1;startSize=26;fillColor=none;horizontalStack=0;resizeParent=1;resizeParentMax=0;resizeLast=0;collapsible=0;marginBottom=0;" parent="86" vertex="1">
                    <mxGeometry x="25" y="40" width="140" height="90" as="geometry"/>
                </mxCell>
                <mxCell id="76" value="+ getStart()&#xa;+ getEnd()&#xa;+ setStart()&#xa;+ setEnd()" style="text;strokeColor=none;fillColor=none;align=left;verticalAlign=top;spacingLeft=4;spacingRight=4;overflow=hidden;rotatable=0;points=[[0,0.5],[1,0.5]];portConstraint=eastwest;" parent="74" vertex="1">
                    <mxGeometry y="26" width="140" height="64" as="geometry"/>
                </mxCell>
                <mxCell id="131" value="" style="endArrow=block;html=1;rounded=1;edgeStyle=orthogonalEdgeStyle;endFill=0;strokeWidth=1;endSize=14;entryX=0.435;entryY=0.999;entryDx=0;entryDy=0;entryPerimeter=0;exitX=0.5;exitY=0;exitDx=0;exitDy=0;" edge="1" parent="86" source="82" target="76">
                    <mxGeometry width="80" height="80" relative="1" as="geometry">
                        <mxPoint x="450" y="260" as="sourcePoint"/>
                        <mxPoint x="530" y="180" as="targetPoint"/>
                    </mxGeometry>
                </mxCell>
                <mxCell id="87" value="circle" style="shape=folder;fontStyle=1;align=left;spacingLeft=2;boundedLbl=1;labelInHeader=1;container=1;collapsible=0;recursiveResize=0;tabWidth=100;tabHeight=20;tabPosition=left;html=1;fontSize=12;fillColor=#E6E6E6;strokeWidth=2;" parent="70" vertex="1">
                    <mxGeometry x="345" y="60" width="185" height="290" as="geometry"/>
                </mxCell>
                <mxCell id="88" value="Midpoint" style="swimlane;fontStyle=0;childLayout=stackLayout;horizontal=1;startSize=26;fillColor=none;horizontalStack=0;resizeParent=1;resizeParentMax=0;resizeLast=0;collapsible=0;marginBottom=0;" parent="87" vertex="1">
                    <mxGeometry x="20" y="170" width="140" height="98" as="geometry"/>
                </mxCell>
                <mxCell id="89" value="- center : Point2D&#xa;- radius : int" style="text;strokeColor=none;fillColor=none;align=left;verticalAlign=top;spacingLeft=4;spacingRight=4;overflow=hidden;rotatable=0;points=[[0,0.5],[1,0.5]];portConstraint=eastwest;" parent="88" vertex="1">
                    <mxGeometry y="26" width="140" height="34" as="geometry"/>
                </mxCell>
                <mxCell id="90" value="+ translate()&#xa;+ rotate()" style="text;strokeColor=none;fillColor=none;align=left;verticalAlign=top;spacingLeft=4;spacingRight=4;overflow=hidden;rotatable=0;points=[[0,0.5],[1,0.5]];portConstraint=eastwest;" parent="88" vertex="1">
                    <mxGeometry y="60" width="140" height="38" as="geometry"/>
                </mxCell>
                <mxCell id="78" value="&lt;&lt;interface&gt;&gt;&#xa;Circle" style="swimlane;fontStyle=0;childLayout=stackLayout;horizontal=1;startSize=26;fillColor=none;horizontalStack=0;resizeParent=1;resizeParentMax=0;resizeLast=0;collapsible=0;marginBottom=0;" parent="87" vertex="1">
                    <mxGeometry x="20" y="30" width="140" height="90" as="geometry"/>
                </mxCell>
                <mxCell id="80" value="+ getCenter()&#xa;+ setCenter()&#xa;+ getRadius()&#xa;+ setRadius()" style="text;strokeColor=none;fillColor=none;align=left;verticalAlign=top;spacingLeft=4;spacingRight=4;overflow=hidden;rotatable=0;points=[[0,0.5],[1,0.5]];portConstraint=eastwest;" parent="78" vertex="1">
                    <mxGeometry y="26" width="140" height="64" as="geometry"/>
                </mxCell>
                <mxCell id="133" value="" style="endArrow=block;html=1;rounded=1;edgeStyle=orthogonalEdgeStyle;endFill=0;strokeWidth=1;endSize=14;exitX=0.5;exitY=0;exitDx=0;exitDy=0;entryX=0.482;entryY=0.999;entryDx=0;entryDy=0;entryPerimeter=0;" edge="1" parent="87" source="88" target="80">
                    <mxGeometry width="80" height="80" relative="1" as="geometry">
                        <mxPoint x="20" y="230" as="sourcePoint"/>
                        <mxPoint x="90" y="110" as="targetPoint"/>
                    </mxGeometry>
                </mxCell>
                <mxCell id="106" value="" style="endArrow=block;html=1;rounded=1;edgeStyle=orthogonalEdgeStyle;endFill=0;strokeWidth=1;endSize=14;entryX=0;entryY=0.673;entryDx=0;entryDy=0;entryPerimeter=0;exitX=0.5;exitY=0;exitDx=0;exitDy=0;" edge="1" parent="63" source="74" target="15">
                    <mxGeometry width="80" height="80" relative="1" as="geometry">
                        <mxPoint x="480" y="370" as="sourcePoint"/>
                        <mxPoint x="560" y="290" as="targetPoint"/>
                    </mxGeometry>
                </mxCell>
                <mxCell id="128" value="" style="endArrow=block;html=1;rounded=1;edgeStyle=orthogonalEdgeStyle;endFill=0;strokeWidth=1;endSize=14;entryX=1;entryY=0.5;entryDx=0;entryDy=0;exitX=0.5;exitY=0;exitDx=0;exitDy=0;" edge="1" parent="63" source="78" target="15">
                    <mxGeometry width="80" height="80" relative="1" as="geometry">
                        <mxPoint x="430" y="370" as="sourcePoint"/>
                        <mxPoint x="510" y="290" as="targetPoint"/>
                        <Array as="points">
                            <mxPoint x="460" y="113"/>
                        </Array>
                    </mxGeometry>
                </mxCell>
                <mxCell id="60" value="Point" style="shape=folder;fontStyle=1;align=left;spacingLeft=2;boundedLbl=1;labelInHeader=1;container=1;collapsible=0;recursiveResize=0;tabWidth=100;tabHeight=20;tabPosition=left;html=1;fontSize=12;fillColor=#E6E6E6;strokeWidth=2;" parent="35" vertex="1">
                    <mxGeometry x="760" y="50" width="410" height="390" as="geometry"/>
                </mxCell>
                <mxCell id="61" value="impl" style="shape=folder;fontStyle=1;align=left;spacingLeft=2;boundedLbl=1;labelInHeader=1;container=1;collapsible=0;recursiveResize=0;tabWidth=100;tabHeight=20;tabPosition=left;html=1;fontSize=12;fillColor=#E6E6E6;strokeWidth=2;" parent="60" vertex="1">
                    <mxGeometry x="20" y="174" width="360" height="180" as="geometry"/>
                </mxCell>
                <mxCell id="56" value="Point2D" style="swimlane;fontStyle=0;childLayout=stackLayout;horizontal=1;startSize=26;fillColor=none;horizontalStack=0;resizeParent=1;resizeParentMax=0;resizeLast=0;collapsible=0;marginBottom=0;" parent="61" vertex="1">
                    <mxGeometry x="200" y="42" width="130" height="100" as="geometry"/>
                </mxCell>
                <mxCell id="57" value="+ getX()&#xa;+ getY()&#xa;+ setX()&#xa;+ setY()" style="text;strokeColor=none;fillColor=none;align=left;verticalAlign=top;spacingLeft=4;spacingRight=4;overflow=hidden;rotatable=0;points=[[0,0.5],[1,0.5]];portConstraint=eastwest;" parent="56" vertex="1">
                    <mxGeometry y="26" width="130" height="74" as="geometry"/>
                </mxCell>
                <mxCell id="98" value="Point3D" style="swimlane;fontStyle=0;childLayout=stackLayout;horizontal=1;startSize=26;fillColor=none;horizontalStack=0;resizeParent=1;resizeParentMax=0;resizeLast=0;collapsible=0;marginBottom=0;" parent="61" vertex="1">
                    <mxGeometry x="40" y="42" width="130" height="120" as="geometry"/>
                </mxCell>
                <mxCell id="99" value="+ getX()&#xa;+ getY()&#xa;+ getZ()&#xa;+ setX()&#xa;+ setY()&#xa;+ setZ()" style="text;strokeColor=none;fillColor=none;align=left;verticalAlign=top;spacingLeft=4;spacingRight=4;overflow=hidden;rotatable=0;points=[[0,0.5],[1,0.5]];portConstraint=eastwest;" parent="98" vertex="1">
                    <mxGeometry y="26" width="130" height="94" as="geometry"/>
                </mxCell>
                <mxCell id="23" value="&lt;&lt;interface&gt;&gt;&#xa;Point" style="swimlane;fontStyle=0;childLayout=stackLayout;horizontal=1;startSize=26;fillColor=none;horizontalStack=0;resizeParent=1;resizeParentMax=0;resizeLast=0;collapsible=0;marginBottom=0;" parent="60" vertex="1">
                    <mxGeometry x="130" y="44" width="140" height="100" as="geometry"/>
                </mxCell>
                <mxCell id="25" value="+ getDimension()&#xa;+ getCoords()&#xa;+ setCoords()" style="text;strokeColor=none;fillColor=none;align=left;verticalAlign=top;spacingLeft=4;spacingRight=4;overflow=hidden;rotatable=0;points=[[0,0.5],[1,0.5]];portConstraint=eastwest;" parent="23" vertex="1">
                    <mxGeometry y="26" width="140" height="74" as="geometry"/>
                </mxCell>
                <mxCell id="59" value="" style="endArrow=block;html=1;rounded=1;edgeStyle=orthogonalEdgeStyle;endFill=0;strokeWidth=1;endSize=14;entryX=0.814;entryY=1.014;entryDx=0;entryDy=0;entryPerimeter=0;exitX=0.5;exitY=0;exitDx=0;exitDy=0;" parent="60" source="56" target="25" edge="1">
                    <mxGeometry width="80" height="80" relative="1" as="geometry">
                        <mxPoint x="50" y="378" as="sourcePoint"/>
                        <mxPoint x="130" y="298" as="targetPoint"/>
                    </mxGeometry>
                </mxCell>
                <mxCell id="100" value="" style="endArrow=block;html=1;rounded=1;edgeStyle=orthogonalEdgeStyle;endFill=0;strokeWidth=1;endSize=14;exitX=0.626;exitY=-0.025;exitDx=0;exitDy=0;exitPerimeter=0;entryX=0.489;entryY=1.001;entryDx=0;entryDy=0;entryPerimeter=0;" parent="60" source="98" target="25" edge="1">
                    <mxGeometry width="80" height="80" relative="1" as="geometry">
                        <mxPoint x="-30" y="420" as="sourcePoint"/>
                        <mxPoint x="186" y="168" as="targetPoint"/>
                    </mxGeometry>
                </mxCell>
                <mxCell id="51" value="" style="edgeStyle=orthogonalEdgeStyle;rounded=1;orthogonalLoop=1;jettySize=auto;html=1;entryX=0;entryY=0.5;entryDx=0;entryDy=0;endArrow=0;endFill=0;startSize=15;endSize=15;align=center;fontSize=12;labelBackgroundColor=none;;startArrow=diamondThin;startFill=1;exitX=1;exitY=0.25;exitDx=0;exitDy=0;" parent="35" source="13" target="25" edge="1">
                    <mxGeometry width="80" height="80" relative="1" as="geometry">
                        <mxPoint x="530" y="121" as="sourcePoint"/>
                        <mxPoint x="910" y="438" as="targetPoint"/>
                    </mxGeometry>
                </mxCell>
                <mxCell id="52" value="0..*" style="edgeLabel;resizable=0;html=1;align=right;verticalAlign=bottom;" parent="51" connectable="0" vertex="1">
                    <mxGeometry x="1" relative="1" as="geometry">
                        <mxPoint x="-3" y="1" as="offset"/>
                    </mxGeometry>
                </mxCell>
                <mxCell id="53" value="0..*" style="edgeLabel;resizable=0;html=1;align=left;verticalAlign=bottom;" parent="51" connectable="0" vertex="1">
                    <mxGeometry x="-1" relative="1" as="geometry">
                        <mxPoint x="1" y="-3" as="offset"/>
                    </mxGeometry>
                </mxCell>
                <mxCell id="12" value="Renderer (To Be Designed)" style="shape=folder;fontStyle=1;align=left;spacingLeft=2;boundedLbl=1;labelInHeader=1;container=1;collapsible=0;recursiveResize=0;tabWidth=100;tabHeight=20;tabPosition=left;html=1;fontSize=12;fillColor=#E6E6E6;strokeWidth=2;" parent="1" vertex="1">
                    <mxGeometry x="550" y="570" width="520" height="750" as="geometry"/>
                </mxCell>
                <mxCell id="152" value="Stylus" style="shape=folder;fontStyle=1;align=left;spacingLeft=2;boundedLbl=1;labelInHeader=1;container=1;collapsible=0;recursiveResize=0;tabWidth=100;tabHeight=20;tabPosition=left;html=1;fontSize=12;fillColor=#E6E6E6;strokeWidth=2;" vertex="1" parent="12">
                    <mxGeometry x="30" y="150" width="450" height="390" as="geometry"/>
                </mxCell>
                <mxCell id="2" value="Screen" style="swimlane;fontStyle=0;childLayout=stackLayout;horizontal=1;startSize=26;fillColor=none;horizontalStack=0;resizeParent=1;resizeParentMax=0;resizeLast=0;collapsible=0;marginBottom=0;" parent="12" vertex="1">
                    <mxGeometry x="55" y="560" width="200" height="150" as="geometry"/>
                </mxCell>
                <mxCell id="3" value="- resolution&#xa;- grid[][]&#xa;- shapes[] : RenderableShapes" style="text;strokeColor=none;fillColor=none;align=left;verticalAlign=top;spacingLeft=4;spacingRight=4;overflow=hidden;rotatable=0;points=[[0,0.5],[1,0.5]];portConstraint=eastwest;" parent="2" vertex="1">
                    <mxGeometry y="26" width="200" height="64" as="geometry"/>
                </mxCell>
                <mxCell id="4" value="+ render(Shape s)&#xa;+ flush()&#xa;+ display()" style="text;strokeColor=none;fillColor=none;align=left;verticalAlign=top;spacingLeft=4;spacingRight=4;overflow=hidden;rotatable=0;points=[[0,0.5],[1,0.5]];portConstraint=eastwest;" parent="2" vertex="1">
                    <mxGeometry y="90" width="200" height="60" as="geometry"/>
                </mxCell>
                <mxCell id="20" value="&lt;&lt;functional interface&gt;&gt;&#xa;Style" style="swimlane;fontStyle=0;childLayout=stackLayout;horizontal=1;startSize=26;fillColor=none;horizontalStack=0;resizeParent=1;resizeParentMax=0;resizeLast=0;collapsible=0;marginBottom=0;" parent="12" vertex="1">
                    <mxGeometry x="325" y="390" width="140" height="52" as="geometry"/>
                </mxCell>
                <mxCell id="22" value="+ stylize()" style="text;strokeColor=none;fillColor=none;align=left;verticalAlign=top;spacingLeft=4;spacingRight=4;overflow=hidden;rotatable=0;points=[[0,0.5],[1,0.5]];portConstraint=eastwest;" parent="20" vertex="1">
                    <mxGeometry y="26" width="140" height="26" as="geometry"/>
                </mxCell>
                <mxCell id="17" value="&lt;&lt;interface&gt;&gt;&#xa;Output" style="swimlane;fontStyle=0;childLayout=stackLayout;horizontal=1;startSize=26;fillColor=none;horizontalStack=0;resizeParent=1;resizeParentMax=0;resizeLast=0;collapsible=0;marginBottom=0;" parent="12" vertex="1">
                    <mxGeometry x="340" y="596" width="140" height="78" as="geometry"/>
                </mxCell>
                <mxCell id="18" value="Attribute 1" style="text;strokeColor=none;fillColor=none;align=left;verticalAlign=top;spacingLeft=4;spacingRight=4;overflow=hidden;rotatable=0;points=[[0,0.5],[1,0.5]];portConstraint=eastwest;" parent="17" vertex="1">
                    <mxGeometry y="26" width="140" height="26" as="geometry"/>
                </mxCell>
                <mxCell id="19" value="Operation 1" style="text;strokeColor=none;fillColor=none;align=left;verticalAlign=top;spacingLeft=4;spacingRight=4;overflow=hidden;rotatable=0;points=[[0,0.5],[1,0.5]];portConstraint=eastwest;" parent="17" vertex="1">
                    <mxGeometry y="52" width="140" height="26" as="geometry"/>
                </mxCell>
                <mxCell id="114" value="RenderableShape Constructs" style="shape=folder;fontStyle=1;align=left;spacingLeft=2;boundedLbl=1;labelInHeader=1;container=1;collapsible=0;recursiveResize=0;tabWidth=100;tabHeight=20;tabPosition=left;html=1;fontSize=12;fillColor=#E6E6E6;strokeWidth=2;" vertex="1" parent="12">
                    <mxGeometry x="55" y="190" width="200" height="330" as="geometry"/>
                </mxCell>
                <mxCell id="26" value="Pixel" style="swimlane;fontStyle=0;childLayout=stackLayout;horizontal=1;startSize=26;fillColor=none;horizontalStack=0;resizeParent=1;resizeParentMax=0;resizeLast=0;collapsible=0;marginBottom=0;" parent="114" vertex="1">
                    <mxGeometry x="30" y="39" width="140" height="90" as="geometry"/>
                </mxCell>
                <mxCell id="27" value="- stroke: char " style="text;strokeColor=none;fillColor=none;align=left;verticalAlign=top;spacingLeft=4;spacingRight=4;overflow=hidden;rotatable=0;points=[[0,0.5],[1,0.5]];portConstraint=eastwest;" parent="26" vertex="1">
                    <mxGeometry y="26" width="140" height="26" as="geometry"/>
                </mxCell>
                <mxCell id="28" value="+ getStroke()&#xa;+ setStroke()" style="text;strokeColor=none;fillColor=none;align=left;verticalAlign=top;spacingLeft=4;spacingRight=4;overflow=hidden;rotatable=0;points=[[0,0.5],[1,0.5]];portConstraint=eastwest;" parent="26" vertex="1">
                    <mxGeometry y="52" width="140" height="38" as="geometry"/>
                </mxCell>
                <mxCell id="101" value="&lt;&lt;interface&gt;&gt;&#xa;RenderableShape" style="swimlane;fontStyle=0;childLayout=stackLayout;horizontal=1;startSize=26;fillColor=none;horizontalStack=0;resizeParent=1;resizeParentMax=0;resizeLast=0;collapsible=0;marginBottom=0;" parent="114" vertex="1">
                    <mxGeometry x="30" y="190" width="140" height="84" as="geometry"/>
                </mxCell>
                <mxCell id="103" value="+ getPixels()&#xa;+ withStyle(Style s)" style="text;strokeColor=none;fillColor=none;align=left;verticalAlign=top;spacingLeft=4;spacingRight=4;overflow=hidden;rotatable=0;points=[[0,0.5],[1,0.5]];portConstraint=eastwest;" parent="101" vertex="1">
                    <mxGeometry y="26" width="140" height="58" as="geometry"/>
                </mxCell>
                <mxCell id="134" value="" style="edgeStyle=orthogonalEdgeStyle;rounded=1;orthogonalLoop=1;jettySize=auto;html=1;exitX=0.524;exitY=1.023;exitDx=0;exitDy=0;entryX=0.5;entryY=0;entryDx=0;entryDy=0;endArrow=0;endFill=0;startSize=15;endSize=15;align=center;fontSize=12;labelBackgroundColor=none;;startArrow=diamondThin;startFill=1;exitPerimeter=0;" edge="1" parent="114" source="28" target="101">
                    <mxGeometry width="80" height="80" relative="1" as="geometry">
                        <mxPoint x="-560" y="230" as="sourcePoint"/>
                        <mxPoint x="-480" y="310" as="targetPoint"/>
                    </mxGeometry>
                </mxCell>
                <mxCell id="135" value="0..*" style="edgeLabel;resizable=0;html=1;align=right;verticalAlign=bottom;" connectable="0" vertex="1" parent="134">
                    <mxGeometry x="1" relative="1" as="geometry">
                        <mxPoint x="-3" y="1" as="offset"/>
                    </mxGeometry>
                </mxCell>
                <mxCell id="136" value="0..*" style="edgeLabel;resizable=0;html=1;align=left;verticalAlign=bottom;" connectable="0" vertex="1" parent="134">
                    <mxGeometry x="-1" relative="1" as="geometry">
                        <mxPoint x="7" y="20" as="offset"/>
                    </mxGeometry>
                </mxCell>
                <mxCell id="143" value="" style="edgeStyle=orthogonalEdgeStyle;rounded=1;orthogonalLoop=1;jettySize=auto;html=1;exitX=1;exitY=0.5;exitDx=0;exitDy=0;entryX=0;entryY=0.5;entryDx=0;entryDy=0;endArrow=0;endFill=0;startSize=15;endSize=15;align=center;fontSize=12;labelBackgroundColor=none;;startArrow=none;startFill=0;" edge="1" parent="12" source="103" target="22">
                    <mxGeometry width="80" height="80" relative="1" as="geometry">
                        <mxPoint x="575" y="330" as="sourcePoint"/>
                        <mxPoint x="655" y="410" as="targetPoint"/>
                    </mxGeometry>
                </mxCell>
                <mxCell id="144" value="1..1" style="edgeLabel;resizable=0;html=1;align=right;verticalAlign=bottom;" connectable="0" vertex="1" parent="143">
                    <mxGeometry x="1" relative="1" as="geometry">
                        <mxPoint x="-3" y="1" as="offset"/>
                    </mxGeometry>
                </mxCell>
                <mxCell id="145" value="1..1" style="edgeLabel;resizable=0;html=1;align=left;verticalAlign=bottom;" connectable="0" vertex="1" parent="143">
                    <mxGeometry x="-1" relative="1" as="geometry">
                        <mxPoint x="-1" y="-3" as="offset"/>
                    </mxGeometry>
                </mxCell>
                <mxCell id="149" value="" style="edgeStyle=orthogonalEdgeStyle;rounded=1;orthogonalLoop=1;jettySize=auto;html=1;exitX=0.734;exitY=1.001;exitDx=0;exitDy=0;entryX=0.5;entryY=0;entryDx=0;entryDy=0;endArrow=0;endFill=0;startSize=15;endSize=15;align=center;fontSize=12;labelBackgroundColor=none;;startArrow=none;startFill=0;exitPerimeter=0;" edge="1" parent="12" source="103" target="2">
                    <mxGeometry width="80" height="80" relative="1" as="geometry">
                        <mxPoint x="505" y="400" as="sourcePoint"/>
                        <mxPoint x="585" y="480" as="targetPoint"/>
                    </mxGeometry>
                </mxCell>
                <mxCell id="150" value="1..1" style="edgeLabel;resizable=0;html=1;align=right;verticalAlign=bottom;" connectable="0" vertex="1" parent="149">
                    <mxGeometry x="1" relative="1" as="geometry">
                        <mxPoint x="-3" y="1" as="offset"/>
                    </mxGeometry>
                </mxCell>
                <mxCell id="151" value="0..*" style="edgeLabel;resizable=0;html=1;align=left;verticalAlign=bottom;" connectable="0" vertex="1" parent="149">
                    <mxGeometry x="-1" relative="1" as="geometry">
                        <mxPoint x="-23" y="16" as="offset"/>
                    </mxGeometry>
                </mxCell>
                <mxCell id="158" value="" style="edgeStyle=orthogonalEdgeStyle;rounded=1;orthogonalLoop=1;jettySize=auto;html=1;exitX=0.988;exitY=0.892;exitDx=0;exitDy=0;entryX=0.031;entryY=0.843;entryDx=0;entryDy=0;endArrow=0;endFill=0;startSize=15;endSize=15;align=center;fontSize=12;labelBackgroundColor=none;;startArrow=none;startFill=0;exitPerimeter=0;entryPerimeter=0;" edge="1" parent="12" source="3" target="18">
                    <mxGeometry width="80" height="80" relative="1" as="geometry">
                        <mxPoint x="210" y="470" as="sourcePoint"/>
                        <mxPoint x="290" y="550" as="targetPoint"/>
                    </mxGeometry>
                </mxCell>
                <mxCell id="159" value="1..1" style="edgeLabel;resizable=0;html=1;align=right;verticalAlign=bottom;" connectable="0" vertex="1" parent="158">
                    <mxGeometry x="1" relative="1" as="geometry">
                        <mxPoint x="-4" y="-4" as="offset"/>
                    </mxGeometry>
                </mxCell>
                <mxCell id="160" value="1..1" style="edgeLabel;resizable=0;html=1;align=left;verticalAlign=bottom;" connectable="0" vertex="1" parent="158">
                    <mxGeometry x="-1" relative="1" as="geometry">
                        <mxPoint x="-1" y="-3" as="offset"/>
                    </mxGeometry>
                </mxCell>
                <mxCell id="161" value="Some Relation" style="edgeLabel;html=1;align=center;verticalAlign=middle;resizable=0;points=[];" vertex="1" connectable="0" parent="158">
                    <mxGeometry x="-0.0084" y="1" relative="1" as="geometry">
                        <mxPoint as="offset"/>
                    </mxGeometry>
                </mxCell>
                <mxCell id="108" value="Functions" style="shape=folder;fontStyle=1;align=left;spacingLeft=2;boundedLbl=1;labelInHeader=1;container=1;collapsible=0;recursiveResize=0;tabWidth=100;tabHeight=20;tabPosition=left;html=1;fontSize=12;fillColor=#E6E6E6;strokeWidth=2;" vertex="1" parent="1">
                    <mxGeometry x="-413" y="260" width="450" height="200" as="geometry"/>
                </mxCell>
                <mxCell id="122" value="&lt;&lt;functional interface&gt;&gt;&#xa;Transformation" style="swimlane;fontStyle=0;childLayout=stackLayout;horizontal=1;startSize=26;fillColor=none;horizontalStack=0;resizeParent=1;resizeParentMax=0;resizeLast=0;collapsible=0;marginBottom=0;" vertex="1" parent="108">
                    <mxGeometry x="30" y="74" width="150" height="52" as="geometry"/>
                </mxCell>
                <mxCell id="124" value="+ Point transform(Point p)" style="text;strokeColor=none;fillColor=none;align=left;verticalAlign=top;spacingLeft=4;spacingRight=4;overflow=hidden;rotatable=0;points=[[0,0.5],[1,0.5]];portConstraint=eastwest;" vertex="1" parent="122">
                    <mxGeometry y="26" width="150" height="26" as="geometry"/>
                </mxCell>
                <mxCell id="125" value="&lt;&lt;functional interface&gt;&gt;&#xa;Projection" style="swimlane;fontStyle=0;childLayout=stackLayout;horizontal=1;startSize=26;fillColor=none;horizontalStack=0;resizeParent=1;resizeParentMax=0;resizeLast=0;collapsible=0;marginBottom=0;" vertex="1" parent="108">
                    <mxGeometry x="230" y="74" width="140" height="52" as="geometry"/>
                </mxCell>
                <mxCell id="126" value="+ Point project(Point p)" style="text;strokeColor=none;fillColor=none;align=left;verticalAlign=top;spacingLeft=4;spacingRight=4;overflow=hidden;rotatable=0;points=[[0,0.5],[1,0.5]];portConstraint=eastwest;" vertex="1" parent="125">
                    <mxGeometry y="26" width="140" height="26" as="geometry"/>
                </mxCell>
                <mxCell id="109" value="" style="edgeStyle=orthogonalEdgeStyle;rounded=1;orthogonalLoop=1;jettySize=auto;html=1;entryX=0.5;entryY=0;entryDx=0;entryDy=0;endArrow=0;endFill=0;startSize=15;endSize=15;align=center;fontSize=12;labelBackgroundColor=none;;startArrow=none;startFill=0;exitX=0.461;exitY=1.038;exitDx=0;exitDy=0;exitPerimeter=0;" edge="1" parent="1" source="124" target="13">
                    <mxGeometry width="80" height="80" relative="1" as="geometry">
                        <mxPoint x="-570" y="380" as="sourcePoint"/>
                        <mxPoint x="-460" y="575" as="targetPoint"/>
                        <Array as="points">
                            <mxPoint x="-300" y="387"/>
                        </Array>
                    </mxGeometry>
                </mxCell>
                <mxCell id="110" value="1..1" style="edgeLabel;resizable=0;html=1;align=right;verticalAlign=bottom;" connectable="0" vertex="1" parent="109">
                    <mxGeometry x="1" relative="1" as="geometry">
                        <mxPoint x="-3" y="1" as="offset"/>
                    </mxGeometry>
                </mxCell>
                <mxCell id="111" value="0..*" style="edgeLabel;resizable=0;html=1;align=left;verticalAlign=bottom;" connectable="0" vertex="1" parent="109">
                    <mxGeometry x="-1" relative="1" as="geometry">
                        <mxPoint x="10" y="19" as="offset"/>
                    </mxGeometry>
                </mxCell>
                <mxCell id="92" value="" style="endArrow=block;html=1;rounded=1;edgeStyle=orthogonalEdgeStyle;endFill=0;strokeWidth=1;endSize=14;entryX=1;entryY=0.5;entryDx=0;entryDy=0;exitX=0.017;exitY=0.907;exitDx=0;exitDy=0;exitPerimeter=0;" parent="1" source="27" target="57" edge="1">
                    <mxGeometry width="80" height="80" relative="1" as="geometry">
                        <mxPoint x="330" y="1120" as="sourcePoint"/>
                        <mxPoint x="410" y="1040" as="targetPoint"/>
                    </mxGeometry>
                </mxCell>
                <mxCell id="113" value="Contains functions which maps one point to another.&lt;div&gt;Example:&lt;/div&gt;&lt;div&gt;Point2D -&amp;gt; Point2D [linear transformation]&lt;/div&gt;&lt;div&gt;Point3D -&amp;gt; Point2D [Projection]&lt;/div&gt;&lt;div&gt;&lt;br&gt;&lt;/div&gt;&lt;div&gt;User should be able to customize the function e.g., with lambdas&lt;/div&gt;" style="shape=note2;boundedLbl=1;whiteSpace=wrap;html=1;size=10;spacingLeft=2;verticalAlign=top;align=left;fillColor=#FFFFFF;connectable=1" vertex="1" parent="1">
                    <mxGeometry x="-1070" y="233.5" width="330" height="125" as="geometry"/>
                </mxCell>
                <mxCell id="127" value="" style="edgeStyle=elbowEdgeStyle;dashed=1;dashPattern=5 5;strokeWidth=2;arcSize=0;startArrow=none;endArrow=none;startSize=0;endSize=0;html=1;endFill=0;align=center;resizeHeight=0;rounded=0;exitX=0;exitY=0;exitDx=330;exitDy=67.5;exitPerimeter=0;entryX=0;entryY=0;entryDx=0;entryDy=110;entryPerimeter=0;" edge="1" parent="1" source="113" target="108">
                    <mxGeometry width="300" relative="1" as="geometry">
                        <mxPoint x="-490" y="620" as="sourcePoint"/>
                        <mxPoint x="-190" y="620" as="targetPoint"/>
                    </mxGeometry>
                </mxCell>
                <mxCell id="141" value="" style="endArrow=block;html=1;rounded=1;edgeStyle=orthogonalEdgeStyle;endFill=0;strokeWidth=1;endSize=14;exitX=0.43;exitY=0.998;exitDx=0;exitDy=0;exitPerimeter=0;entryX=0.171;entryY=1.001;entryDx=0;entryDy=0;entryPerimeter=0;" edge="1" parent="1" source="84" target="103">
                    <mxGeometry width="80" height="80" relative="1" as="geometry">
                        <mxPoint x="50" y="1070" as="sourcePoint"/>
                        <mxPoint x="130" y="990" as="targetPoint"/>
                    </mxGeometry>
                </mxCell>
                <mxCell id="142" value="" style="endArrow=block;html=1;rounded=1;edgeStyle=orthogonalEdgeStyle;endFill=0;strokeWidth=1;endSize=14;exitX=0.969;exitY=0.289;exitDx=0;exitDy=0;exitPerimeter=0;entryX=0;entryY=0.5;entryDx=0;entryDy=0;" edge="1" parent="1" source="89" target="103">
                    <mxGeometry width="80" height="80" relative="1" as="geometry">
                        <mxPoint x="50" y="1070" as="sourcePoint"/>
                        <mxPoint x="130" y="990" as="targetPoint"/>
                    </mxGeometry>
                </mxCell>
                <mxCell id="146" value="Look for feasibility for setting stroke&#39;s datatype based on the output medium i.e., if it&#39;s terminal then it should be char and if it&#39;s png, svg then something else" style="shape=note2;boundedLbl=1;whiteSpace=wrap;html=1;size=10;spacingLeft=2;verticalAlign=top;align=left;fillColor=#FFFFFF;connectable=1" vertex="1" parent="1">
                    <mxGeometry x="1116" y="810" width="250" height="90" as="geometry"/>
                </mxCell>
                <mxCell id="147" value="" style="edgeStyle=elbowEdgeStyle;dashed=1;dashPattern=5 5;strokeWidth=2;arcSize=0;startArrow=none;endArrow=none;startSize=0;endSize=0;html=1;endFill=0;align=center;resizeHeight=0;rounded=0;exitX=0.994;exitY=0.05;exitDx=0;exitDy=0;exitPerimeter=0;" edge="1" parent="1" source="28" target="146">
                    <mxGeometry width="300" relative="1" as="geometry">
                        <mxPoint x="980" y="780" as="sourcePoint"/>
                        <mxPoint x="1280" y="780" as="targetPoint"/>
                    </mxGeometry>
                </mxCell>
                <mxCell id="153" value="Goes to some component based on the output specified.&lt;div&gt;TODO: generic method that describes output to different medium i.e., terminal, svg etc.&lt;/div&gt;" style="shape=note2;boundedLbl=1;whiteSpace=wrap;html=1;size=10;spacingLeft=2;verticalAlign=top;align=left;fillColor=#FFFFFF;connectable=1" vertex="1" parent="1">
                    <mxGeometry x="1116" y="1169" width="180" height="100" as="geometry"/>
                </mxCell>
                <mxCell id="154" value="" style="edgeStyle=elbowEdgeStyle;dashed=1;dashPattern=5 5;strokeWidth=2;arcSize=0;startArrow=none;endArrow=none;startSize=0;endSize=0;html=1;endFill=0;align=center;resizeHeight=0;rounded=0;exitX=0.983;exitY=-0.061;exitDx=0;exitDy=0;exitPerimeter=0;entryX=0;entryY=0.5;entryDx=0;entryDy=0;entryPerimeter=0;" edge="1" parent="1" source="19" target="153">
                    <mxGeometry width="300" relative="1" as="geometry">
                        <mxPoint x="890" y="1100" as="sourcePoint"/>
                        <mxPoint x="1190" y="1100" as="targetPoint"/>
                    </mxGeometry>
                </mxCell>
            </root>
        </mxGraphModel>
    </diagram>
</mxfile>